<?xml version="1.0" encoding="UTF-8"?>
<svg width="49px" height="67px" viewBox="0 0 49 67" version="1.1" xmlns="http://www.w3.org/2000/svg" xmlns:xlink="http://www.w3.org/1999/xlink">
    <!-- Generator: Sketch 46.2 (44496) - http://www.bohemiancoding.com/sketch -->
    <title>brand-strategy</title>
    <desc>Created with Sketch.</desc>
    <defs>
        <linearGradient x1="0.267059949%" y1="0.267059949%" x2="100%" y2="100%" id="linearGradient-1">
            <stop stop-color="#514CE3" offset="0%"></stop>
            <stop stop-color="#4CC8F6" offset="100%"></stop>
        </linearGradient>
    </defs>
    <g id="website-design" stroke="none" stroke-width="1" fill="none" fill-rule="evenodd">
        <g id="Services-page" transform="translate(-217.000000, -1647.000000)" fill-rule="nonzero" fill="url(#linearGradient-1)">
            <path d="M257.754803,1713.11782 C261.309584,1713.12423 264.387212,1710.64959 265.144078,1707.17623 C265.900943,1703.70286 264.131924,1700.17211 260.896677,1698.69892 C257.66143,1697.22573 253.836758,1698.20936 251.713671,1701.06061 L251.46807,1701.39044 L251.097035,1701.21312 C249.119234,1700.26789 247.31507,1698.99577 245.760566,1697.45038 C238.935121,1690.6678 238.24306,1679.62262 243.930729,1671.77508 L244.594167,1670.8597 L244.825041,1671.96639 L245.313299,1674.30685 C245.523905,1675.32285 246.518266,1675.97575 247.534267,1675.76515 C248.550267,1675.55454 249.203168,1674.56018 248.992566,1673.5442 L247.343767,1665.5916 C247.122213,1664.58555 246.131207,1663.94607 245.121528,1664.15909 L237.162521,1665.80926 C236.674531,1665.91004 236.246639,1666.20072 235.973148,1666.61724 C235.699656,1667.03377 235.603011,1667.54195 235.704664,1668.03051 C235.805441,1668.51851 236.096123,1668.9464 236.512648,1669.21989 C236.929173,1669.49338 237.437353,1669.59002 237.924933,1669.48858 L241.507955,1668.7411 L240.775272,1669.77838 C234.181924,1679.11278 235.068527,1692.11266 243.0968,1700.1001 C245.068874,1702.06542 247.378884,1703.65938 249.916149,1704.80561 L250.210301,1704.93849 L250.210301,1705.26127 L250.210301,1705.56834 C250.215777,1709.73359 253.589558,1713.1096 257.754803,1713.11782 Z M261.548642,1705.56292 C261.551997,1707.65637 259.859431,1709.35712 257.765985,1709.36385 C255.672539,1709.37058 253.969065,1707.68076 253.958952,1705.58733 C253.954075,1704.5777 254.351736,1703.60774 255.063941,1702.8921 C255.776147,1702.17645 256.744175,1701.77412 257.753822,1701.77413 C259.847279,1701.77415 261.545288,1703.46946 261.548642,1705.56292 Z M252.255129,1688.96008 C251.513539,1689.69587 251.508844,1690.89127 252.24325,1691.63147 C252.977657,1692.37167 254.17306,1692.37636 254.911867,1691.64334 L257.753065,1688.80214 L258.106616,1689.15419 L260.604143,1691.64112 C261.082669,1692.11366 261.77694,1692.29501 262.425431,1692.11686 C263.073921,1691.93871 263.578111,1691.42813 263.748075,1690.77745 C263.91804,1690.12676 263.727958,1689.43483 263.247578,1688.96046 L260.42609,1686.14504 L260.780024,1685.7911 L263.263356,1683.30777 C263.615912,1682.9557 263.814016,1682.47789 263.814016,1681.97964 C263.814016,1681.48139 263.615912,1681.00359 263.262873,1680.65103 C262.910799,1680.29848 262.432995,1680.10037 261.934746,1680.10037 C261.436497,1680.10037 260.958693,1680.29848 260.604485,1680.65315 L257.751558,1683.4758 L257.399886,1683.12338 L254.911625,1680.62981 C254.559551,1680.27725 254.081746,1680.07915 253.583498,1680.07915 C253.085249,1680.07915 252.607445,1680.27725 252.254887,1680.63029 C251.902332,1680.98237 251.704228,1681.46017 251.704228,1681.95842 C251.704228,1682.45667 251.902332,1682.93447 252.255129,1683.28679 L255.091773,1686.12343 L252.255129,1688.96008 Z M236.023402,1703.63964 L236.058934,1703.60737 C236.610492,1703.15274 236.855963,1702.4243 236.692055,1701.72857 C236.528147,1701.03285 235.983315,1700.4906 235.286815,1700.33001 C234.590315,1700.16941 233.863056,1700.41834 233.377276,1701.00943 L230.537987,1703.84872 L230.184453,1703.48987 L227.7146,1700.9829 C227.24002,1700.50832 226.548304,1700.32298 225.900015,1700.49668 C225.251726,1700.67039 224.745354,1701.17676 224.571646,1701.82505 C224.397937,1702.47334 224.583282,1703.16506 225.059736,1703.64152 L227.892632,1706.50468 L227.540953,1706.85636 L225.077519,1709.31864 C224.415823,1710.06082 224.447725,1711.19025 225.150259,1711.89389 C225.852793,1712.59754 226.98217,1712.63123 227.703989,1711.99089 L230.541769,1709.15311 L230.895318,1709.50893 L233.366664,1711.99619 C233.841245,1712.47077 234.532961,1712.65612 235.18125,1712.48241 C235.829539,1712.3087 236.33591,1711.80233 236.509619,1711.15404 C236.683327,1710.50575 236.497983,1709.81404 236.021529,1709.33757 L233.188632,1706.47441 L236.023402,1703.63964 Z M217.550228,1686.39209 C216.816591,1687.12573 216.816591,1688.31519 217.550228,1689.04883 C218.283866,1689.78247 219.473328,1689.78247 220.206589,1689.04921 L223.043232,1686.2065 L225.880253,1689.04352 C226.354834,1689.51811 227.04655,1689.70345 227.694839,1689.52974 C228.343128,1689.35603 228.849499,1688.84966 229.023208,1688.20137 C229.196916,1687.55308 229.011572,1686.86137 228.536991,1686.38679 L225.700347,1683.55014 L228.536991,1680.7135 C229.011572,1680.23892 229.196916,1679.5472 229.023208,1678.89891 C228.849499,1678.25063 228.343128,1677.74425 227.694839,1677.57055 C227.04655,1677.39684 226.354834,1677.58218 225.880253,1678.05676 L223.04361,1680.89341 L220.206966,1678.05676 C219.473328,1677.32312 218.283866,1677.32312 217.550228,1678.05676 C216.816591,1678.7904 216.816591,1679.97986 217.550606,1680.71388 L220.386495,1683.55583 L217.550228,1686.39209 Z M254.768886,1648.68413 C256.89824,1646.44573 260.445177,1646.44575 262.574529,1648.68413 C264.683713,1650.90131 264.683713,1654.43951 262.57453,1656.65667 C261.660573,1657.61743 260.879384,1658.43832 259.310598,1660.08661 L259.21926,1660.18257 C257.512718,1661.97559 256.769336,1662.75674 255.828838,1663.74541 C255.527942,1664.06112 255.110845,1664.23979 254.674707,1664.23979 C254.238569,1664.23979 253.821472,1664.06112 253.519528,1663.7443 L246.783169,1656.64737 C244.676239,1654.42829 244.675365,1650.89156 246.783665,1648.67534 C247.81694,1647.58915 249.222115,1647 250.686486,1647 C252.150874,1647 253.556025,1647.58914 254.590372,1648.67646 L254.682696,1648.77391 L254.768886,1648.68413 Z" id="brand-strategy"></path>
        </g>
    </g>
</svg>