<?xml version="1.0" encoding="UTF-8"?>
<svg width="74px" height="56px" viewBox="0 0 74 56" version="1.1" xmlns="http://www.w3.org/2000/svg" xmlns:xlink="http://www.w3.org/1999/xlink">
    <!-- Generator: Sketch 46.2 (44496) - http://www.bohemiancoding.com/sketch -->
    <title>digital-marketing</title>
    <desc>Created with Sketch.</desc>
    <defs>
        <linearGradient x1="0.267059949%" y1="0.267059949%" x2="100%" y2="100%" id="linearGradient-1">
            <stop stop-color="#514CE3" offset="0%"></stop>
            <stop stop-color="#4CC8F6" offset="100%"></stop>
        </linearGradient>
    </defs>
    <g id="website-design" stroke="none" stroke-width="1" fill="none" fill-rule="evenodd">
        <g id="Services-page" transform="translate(-393.000000, -1629.000000)" fill-rule="nonzero" fill="url(#linearGradient-1)">
            <path d="M452.597242,1644.02256 C446.298832,1644.02256 441.192962,1649.12843 441.192962,1655.42684 L441.192962,1669.83112 C441.192962,1676.12953 446.298832,1681.2354 452.597242,1681.2354 C458.895651,1681.2354 464.001521,1676.12953 464.001521,1669.83112 L464.001521,1655.42684 C464.001521,1649.12843 458.895651,1644.02256 452.597242,1644.02256 Z M452.597242,1641.02256 C460.552506,1641.02256 467.001521,1647.47157 467.001521,1655.42684 L467.001521,1669.83112 C467.001521,1677.78638 460.552506,1684.2354 452.597242,1684.2354 C444.641978,1684.2354 438.192962,1677.78638 438.192962,1669.83112 L438.192962,1655.42684 C438.192962,1647.47157 444.641978,1641.02256 452.597242,1641.02256 Z M452.755125,1642.31902 C453.583552,1642.31902 454.255125,1643.39386 454.255125,1644.71973 L454.255125,1657.52354 C454.255125,1658.84941 453.583552,1659.92425 452.755125,1659.92425 C451.926698,1659.92425 451.255125,1658.84941 451.255125,1657.52354 L451.255125,1644.71973 C451.255125,1643.39386 451.926698,1642.31902 452.755125,1642.31902 Z M407.578107,1661.07328 C399.414921,1660.39941 393,1653.5606 393,1645.22351 C393,1636.43982 400.120589,1629.31923 408.90428,1629.31923 C417.687971,1629.31923 424.808559,1636.43982 424.808559,1645.22351 C424.808559,1653.44111 418.576201,1660.20307 410.580352,1661.04052 C410.860453,1665.99794 414.969206,1669.93159 419.996714,1669.93159 C425.205638,1669.93159 429.428305,1665.70892 429.428305,1660.5 L432.428305,1660.5 C432.428305,1667.36578 426.862492,1672.93159 419.996714,1672.93159 C413.323079,1672.93159 407.877667,1667.67294 407.578107,1661.07328 Z M408.90428,1658.12779 C416.031116,1658.12779 421.808559,1652.35034 421.808559,1645.22351 C421.808559,1638.09667 416.031116,1632.31923 408.90428,1632.31923 C401.777443,1632.31923 396,1638.09667 396,1645.22351 C396,1652.35034 401.777443,1658.12779 408.90428,1658.12779 Z M408.651814,1635.65899 L408.651814,1635.65899 C409.635979,1635.65899 410.433807,1636.45645 410.433807,1637.44024 L410.433807,1637.7 C411.916994,1638.16123 413.043355,1639.17375 413.70079,1640.27907 C414.255234,1641.076 413.988777,1642.31789 413.162479,1642.82109 C412.336187,1643.32424 411.134479,1642.98212 410.693679,1642.11602 C410.415234,1641.64784 409.650484,1641.00273 408.670375,1641.00273 C407.866515,1641.01158 406.45367,1641.53604 407.166822,1642.63555 C407.512979,1642.84793 408.323952,1643.09956 409.301496,1643.48906 C410.05443,1643.78903 411.006033,1644.03377 411.993047,1644.63946 C412.980067,1645.24508 413.960663,1646.59384 413.960663,1648.12774 C413.960663,1649.54033 413.29422,1650.8524 412.290047,1651.67165 C411.742146,1652.11869 411.110901,1652.43955 410.433807,1652.6365 L410.433807,1652.87774 C410.433807,1653.86146 409.635979,1654.65899 408.651814,1654.65899 C407.66765,1654.65899 406.869823,1653.86146 406.869823,1652.87774 L406.869823,1652.58086 C405.399918,1652.11049 404.274845,1651.11887 403.6214,1650.02032 C403.034526,1649.22374 403.296607,1647.93174 404.141151,1647.42266 C404.985688,1646.91358 406.229719,1647.3032 406.647072,1648.20196 C406.925528,1648.67007 407.690266,1649.31524 408.670375,1649.31524 C409.461476,1649.30568 410.86668,1648.76685 410.155368,1647.68243 C409.809218,1647.46998 408.998232,1647.19977 408.020694,1646.81033 C407.267766,1646.51036 406.316157,1646.28414 405.329143,1645.67852 C404.342135,1645.07284 403.361527,1643.72407 403.361527,1642.19023 C403.361527,1640.77758 404.027958,1639.46552 405.032143,1638.64626 C405.572675,1638.20528 406.203089,1637.89748 406.869823,1637.7 L406.869823,1637.44024 C406.869823,1636.45645 407.66765,1635.65899 408.651814,1635.65899 Z M454.368307,1641.43159 L451.368307,1641.43159 C451.368307,1636.22267 447.14564,1632 441.936716,1632 C436.727792,1632 432.505125,1636.22267 432.505125,1641.43159 L432.505125,1660.44305 L429.505125,1660.44305 L429.505125,1641.43159 C429.505125,1634.56581 435.070938,1629 441.936716,1629 C448.802494,1629 454.368307,1634.56581 454.368307,1641.43159 Z" id="digital-marketing"></path>
        </g>
    </g>
</svg>