<?xml version="1.0" encoding="UTF-8"?>
<svg width="63px" height="40px" viewBox="0 0 63 40" version="1.1" xmlns="http://www.w3.org/2000/svg" xmlns:xlink="http://www.w3.org/1999/xlink">
    <!-- Generator: Sketch 46.2 (44496) - http://www.bohemiancoding.com/sketch -->
    <title>graphic-design</title>
    <desc>Created with Sketch.</desc>
    <defs>
        <linearGradient x1="0.267059949%" y1="0.267059949%" x2="100%" y2="100%" id="linearGradient-1">
            <stop stop-color="#514CE3" offset="0%"></stop>
            <stop stop-color="#4CC8F6" offset="100%"></stop>
        </linearGradient>
    </defs>
    <g id="website-design" stroke="none" stroke-width="1" fill="none" fill-rule="evenodd">
        <g id="Services-page" transform="translate(-313.000000, -1406.000000)" fill-rule="nonzero" fill="url(#linearGradient-1)">
            <path d="M351.356853,1445.99113 C351.170669,1445.99113 350.975619,1445.94976 350.801256,1445.87588 L343.971555,1443.05948 L337.14481,1445.87588 C336.592168,1446.10048 335.959734,1445.97931 335.537126,1445.55966 C335.111563,1445.13114 334.98744,1444.50166 335.217953,1443.94902 L342.606206,1426.1256 C343.064278,1425.02327 344.881788,1425.02327 345.336904,1426.1256 L352.583303,1443.60621 C352.778352,1443.85445 352.896564,1444.16771 352.896564,1444.52235 C352.896564,1445.34392 352.228666,1445.99409 351.386406,1446 C351.371629,1445.99113 351.359808,1445.99113 351.356853,1445.99113 L351.356853,1445.99113 Z M343.9686,1439.98596 C344.160694,1439.98596 344.349834,1440.02734 344.530107,1440.09531 L348.626154,1441.78279 L343.965645,1430.54082 L339.30218,1441.7887 L343.401182,1440.10417 C343.587366,1440.02734 343.776505,1439.98596 343.9686,1439.98596 Z M349.879202,1420.77651 L338.057998,1420.77651 C337.24529,1420.77651 336.580347,1420.11156 336.580347,1419.29885 L336.580347,1407.47765 C336.580347,1406.66199 337.24529,1406 338.057998,1406 L349.879202,1406 C350.694865,1406 351.356853,1406.66199 351.356853,1407.47765 L351.356853,1419.29885 C351.356853,1420.11452 350.694865,1420.77651 349.879202,1420.77651 Z M339.535648,1417.8212 L348.401552,1417.8212 L348.401552,1408.9553 L339.535648,1408.9553 L339.535648,1417.8212 Z M318.848541,1411.9106 L336.580347,1411.9106 L336.580347,1414.8659 L318.848541,1414.8659 L318.848541,1411.9106 L318.848541,1411.9106 Z M351.356853,1411.9106 L369.088659,1411.9106 L369.088659,1414.8659 L351.356853,1414.8659 L351.356853,1411.9106 L351.356853,1411.9106 Z M370.628371,1417.8212 C368.181382,1417.8212 366.195419,1415.83229 366.195419,1413.38825 C366.195419,1410.94422 368.181382,1408.9553 370.628371,1408.9553 C373.06945,1408.9553 375.061322,1410.94422 375.061322,1413.38825 C375.061322,1415.83229 373.07536,1417.8212 370.628371,1417.8212 Z M370.628371,1411.9106 C369.815663,1411.9106 369.15072,1412.57554 369.15072,1413.38825 C369.15072,1414.19801 369.815663,1414.8659 370.628371,1414.8659 C371.435168,1414.8659 372.106021,1414.19801 372.106021,1413.38825 C372.106021,1412.57554 371.441079,1411.9106 370.628371,1411.9106 L370.628371,1411.9106 Z M317.432952,1417.8212 C314.988918,1417.8212 313,1415.83229 313,1413.38825 C313,1410.94422 314.988918,1408.9553 317.432952,1408.9553 C319.876986,1408.9553 321.865903,1410.94422 321.865903,1413.38825 C321.865903,1415.83229 319.876986,1417.8212 317.432952,1417.8212 Z M317.432952,1411.9106 C316.617289,1411.9106 315.955301,1412.57554 315.955301,1413.38825 C315.955301,1414.19801 316.617289,1414.8659 317.432952,1414.8659 C318.245659,1414.8659 318.910602,1414.19801 318.910602,1413.38825 C318.910602,1412.57554 318.245659,1411.9106 317.432952,1411.9106 L317.432952,1411.9106 Z M373.031031,1440.54156 C372.218323,1440.54156 371.55338,1439.87662 371.55338,1439.06391 C371.55338,1427.06834 362.994828,1416.8696 351.212043,1414.8068 C350.411156,1414.6679 349.867381,1413.90248 350.012191,1413.09568 C350.15109,1412.29479 350.904692,1411.75102 351.720355,1411.89878 C364.927595,1414.21278 374.508681,1425.63502 374.508681,1439.06391 C374.508681,1439.87957 373.849649,1440.54156 373.031031,1440.54156 Z M314.903214,1440.54156 C314.090506,1440.54156 313.425563,1439.87662 313.425563,1439.06391 C313.425563,1425.63502 323.009605,1414.20392 336.216845,1411.89878 C337.032508,1411.75397 337.78611,1412.29184 337.927965,1413.09272 C338.066864,1413.89656 337.531954,1414.66199 336.728112,1414.80384 C324.942372,1416.8696 316.380864,1427.0713 316.380864,1439.06095 C316.380864,1439.87957 315.718877,1440.54156 314.903214,1440.54156 L314.903214,1440.54156 Z" id="graphic-design"></path>
        </g>
    </g>
</svg>