<?xml version="1.0" encoding="UTF-8"?>
<svg width="66px" height="39px" viewBox="0 0 66 39" version="1.1" xmlns="http://www.w3.org/2000/svg" xmlns:xlink="http://www.w3.org/1999/xlink">
    <!-- Generator: Sketch 46.2 (44496) - http://www.bohemiancoding.com/sketch -->
    <title>lead-generation</title>
    <desc>Created with Sketch.</desc>
    <defs>
        <linearGradient x1="0.267059949%" y1="0.267059949%" x2="100%" y2="100%" id="linearGradient-1">
            <stop stop-color="#514CE3" offset="0%"></stop>
            <stop stop-color="#4CC8F6" offset="100%"></stop>
        </linearGradient>
    </defs>
    <g id="website-design" stroke="none" stroke-width="1" fill="none" fill-rule="evenodd">
        <g id="Services-page" transform="translate(-597.000000, -1573.000000)" fill-rule="nonzero" fill="url(#linearGradient-1)">
            <path d="M647.25,1603.9 L647.25,1611.25 L612.75,1611.25 L612.75,1603.9 C612.75,1598.35 617.1,1593.7 622.575,1593.25 L623.25,1593.25 L623.7,1593.7 C625.425,1595.35 627.675,1596.25 630,1596.25 C632.325,1596.25 634.575,1595.35 636.3,1593.7 L636.75,1593.25 L637.425,1593.325 C642.9,1593.7 647.25,1598.35 647.25,1603.9 Z M630,1591 C625.05,1591 621,1586.95 621,1582 C621,1577.05 625.05,1573 630,1573 C634.95,1573 639,1577.05 639,1582 C639,1586.95 634.95,1591 630,1591 Z M649.5,1592.5 C645.375,1592.5 642,1589.125 642,1585 C642,1580.875 645.375,1577.5 649.5,1577.5 C653.625,1577.5 657,1580.875 657,1585 C657,1589.125 653.625,1592.5 649.5,1592.5 Z M655.5,1594.75 C659.625,1594.75 663,1598.125 663,1602.25 L663,1608.25 L649.5,1608.25 L649.5,1605.25 L660,1605.25 L660,1602.25 C660,1599.775 657.975,1597.75 655.5,1597.75 L655.35,1597.75 C653.775,1599.25 651.75,1600 649.5,1600 L649.5,1597 C651.15,1597 652.5,1596.4 653.625,1595.2 L654.075,1594.75 L655.5,1594.75 Z M610.5,1592.5 C606.375,1592.5 603,1589.125 603,1585 C603,1580.875 606.375,1577.5 610.5,1577.5 C614.625,1577.5 618,1580.875 618,1585 C618,1589.125 614.625,1592.5 610.5,1592.5 Z M610.5,1589.36523 C612.900879,1589.36523 614.865234,1587.40088 614.865234,1585 C614.865234,1582.59912 612.900879,1580.63477 610.5,1580.63477 C608.099121,1580.63477 606.134766,1582.59912 606.134766,1585 C606.134766,1587.40088 608.099121,1589.36523 610.5,1589.36523 Z M649.5,1589.36523 C651.900879,1589.36523 653.865234,1587.40088 653.865234,1585 C653.865234,1582.59912 651.900879,1580.63477 649.5,1580.63477 C647.099121,1580.63477 645.134766,1582.59912 645.134766,1585 C645.134766,1587.40088 647.099121,1589.36523 649.5,1589.36523 Z M610.5,1605.25 L610.5,1608.25 L597,1608.25 L597,1602.25 C597,1598.125 600.375,1594.75 604.5,1594.75 L605.85,1594.75 L606.3,1595.2 C607.425,1596.4 608.85,1597 610.5,1597 L610.5,1600 C608.25,1600 606.3,1599.25 604.65,1597.75 L604.5,1597.75 C602.025,1597.75 600,1599.775 600,1602.25 L600,1605.25 L610.5,1605.25 Z" id="lead-generation"></path>
        </g>
    </g>
</svg>