<?xml version="1.0" encoding="UTF-8"?>
<svg width="68px" height="53px" viewBox="0 0 68 53" version="1.1" xmlns="http://www.w3.org/2000/svg" xmlns:xlink="http://www.w3.org/1999/xlink">
    <!-- Generator: Sketch 46.2 (44496) - http://www.bohemiancoding.com/sketch -->
    <title>paid-search-advertising copy</title>
    <desc>Created with Sketch.</desc>
    <defs>
        <linearGradient x1="0.267059949%" y1="0.267059949%" x2="100%" y2="100%" id="linearGradient-1">
            <stop stop-color="#514CE3" offset="0%"></stop>
            <stop stop-color="#4CC8F6" offset="100%"></stop>
        </linearGradient>
    </defs>
    <g id="website-design" stroke="none" stroke-width="1" fill="none" fill-rule="evenodd">
        <g id="Services-page" transform="translate(-1162.000000, -1391.000000)" fill-rule="nonzero" fill="url(#linearGradient-1)">
            <path d="M1165.89785,1393.71619 C1165.35351,1393.71619 1164.91803,1394.14862 1164.91803,1394.68916 L1164.91803,1440.31084 C1164.91803,1440.85138 1165.35351,1441.28381 1165.89785,1441.28381 L1226.10215,1441.28381 C1226.64649,1441.28381 1227.08197,1440.85138 1227.08197,1440.31084 L1227.08197,1394.68916 C1227.08197,1394.14862 1226.64649,1393.71619 1226.10215,1393.71619 L1165.89785,1393.71619 Z M1226.87356,1444 L1165.12644,1444 C1163.3399,1444 1162,1442.55858 1162,1440.8954 L1162,1394.1046 C1162,1392.33054 1163.45156,1391 1165.12644,1391 L1226.87356,1391 C1228.6601,1391 1230,1392.44142 1230,1394.1046 L1230,1440.8954 C1230,1442.66946 1228.6601,1444 1226.87356,1444 Z M1180,1414 L1191,1414 C1191.55228,1414 1192,1414.44772 1192,1415 L1192,1426.82636 C1192,1427.37864 1191.55228,1427.82636 1191,1427.82636 L1180,1427.82636 C1179.44772,1427.82636 1179,1427.37864 1179,1426.82636 L1179,1415 C1179,1414.44772 1179.44772,1414 1180,1414 Z M1182,1416.71692 L1182,1425.10944 L1189,1425.10944 L1189,1416.71692 L1182,1416.71692 Z M1164.12151,1400.3159 L1228.99507,1400.3159 L1228.99507,1403.3159 L1164.12151,1403.3159 L1164.12151,1400.3159 Z M1196.21593,1414.51046 L1210.63465,1414.51046 L1210.63465,1414.51046 C1211.46307,1414.51046 1212.13465,1415.18203 1212.13465,1416.01046 C1212.13465,1416.83889 1211.46307,1417.51046 1210.63465,1417.51046 L1196.21593,1417.51046 C1195.3875,1417.51046 1194.71593,1416.83889 1194.71593,1416.01046 C1194.71593,1415.18203 1195.3875,1414.51046 1196.21593,1414.51046 Z M1196.21593,1419.61297 L1210.74631,1419.61297 L1210.74631,1419.61297 C1211.57473,1419.61297 1212.24631,1420.28454 1212.24631,1421.11297 L1212.24631,1421.11297 C1212.24631,1421.9414 1211.57473,1422.61297 1210.74631,1422.61297 L1196.21593,1422.61297 C1195.3875,1422.61297 1194.71593,1421.9414 1194.71593,1421.11297 C1194.71593,1420.28454 1195.3875,1419.61297 1196.21593,1419.61297 Z M1196.21593,1424.82636 L1210.85796,1424.82636 C1211.68639,1424.82636 1212.35796,1425.49793 1212.35796,1426.32636 C1212.35796,1427.15479 1211.68639,1427.82636 1210.85796,1427.82636 L1196.21593,1427.82636 C1195.3875,1427.82636 1194.71593,1427.15479 1194.71593,1426.32636 C1194.71593,1425.49793 1195.3875,1424.82636 1196.21593,1424.82636 Z M1180.24877,1430.14017 L1210.96962,1430.14017 L1210.96962,1430.14017 C1211.79805,1430.14017 1212.46962,1430.81174 1212.46962,1431.64017 C1212.46962,1432.46859 1211.79805,1433.14017 1210.96962,1433.14017 L1180.24877,1433.14017 C1179.42034,1433.14017 1178.74877,1432.46859 1178.74877,1431.64017 C1178.74877,1430.81174 1179.42034,1430.14017 1180.24877,1430.14017 Z M1180.24877,1435.24268 L1198.46388,1435.24268 L1198.46388,1435.24268 C1199.2923,1435.24268 1199.96388,1435.91425 1199.96388,1436.74268 L1199.96388,1436.74268 C1199.96388,1437.5711 1199.2923,1438.24268 1198.46388,1438.24268 L1180.24877,1438.24268 C1179.42034,1438.24268 1178.74877,1437.5711 1178.74877,1436.74268 C1178.74877,1435.91425 1179.42034,1435.24268 1180.24877,1435.24268 Z M1168.75357,1398.5 C1167.91932,1398.5 1167.24302,1397.82843 1167.24302,1397 C1167.24302,1396.17157 1167.91932,1395.5 1168.75357,1395.5 C1169.58782,1395.5 1170.26412,1396.17157 1170.26412,1397 C1170.26412,1397.82843 1169.58782,1398.5 1168.75357,1398.5 Z M1173.88001,1398.5 C1173.04575,1398.5 1172.36946,1397.82843 1172.36946,1397 C1172.36946,1396.17157 1173.04575,1395.5 1173.88001,1395.5 C1174.71426,1395.5 1175.39056,1396.17157 1175.39056,1397 C1175.39056,1397.82843 1174.71426,1398.5 1173.88001,1398.5 Z M1178.89479,1398.5 C1178.06053,1398.5 1177.38424,1397.82843 1177.38424,1397 C1177.38424,1396.17157 1178.06053,1395.5 1178.89479,1395.5 C1179.72904,1395.5 1180.40534,1396.17157 1180.40534,1397 C1180.40534,1397.82843 1179.72904,1398.5 1178.89479,1398.5 Z M1179.86043,1405.75105 L1211.13465,1405.75105 C1211.68693,1405.75105 1212.13465,1406.19876 1212.13465,1406.75105 L1212.13465,1410.73849 C1212.13465,1411.29078 1211.68693,1411.73849 1211.13465,1411.73849 L1179.86043,1411.73849 C1179.30814,1411.73849 1178.86043,1411.29078 1178.86043,1410.73849 L1178.86043,1406.75105 C1178.86043,1406.19876 1179.30814,1405.75105 1179.86043,1405.75105 Z" id="paid-search-advertising-copy"></path>
        </g>
    </g>
</svg>