<?xml version="1.0" encoding="UTF-8"?>
<svg width="58px" height="58px" viewBox="0 0 58 58" version="1.1" xmlns="http://www.w3.org/2000/svg" xmlns:xlink="http://www.w3.org/1999/xlink">
    <!-- Generator: Sketch 46.2 (44496) - http://www.bohemiancoding.com/sketch -->
    <title>seo</title>
    <desc>Created with Sketch.</desc>
    <defs>
        <linearGradient x1="0.267059949%" y1="0.267059949%" x2="100%" y2="100%" id="linearGradient-1">
            <stop stop-color="#514CE3" offset="0%"></stop>
            <stop stop-color="#4CC8F6" offset="100%"></stop>
        </linearGradient>
    </defs>
    <g id="website-design" stroke="none" stroke-width="1" fill="none" fill-rule="evenodd">
        <g id="Services-page" transform="translate(-785.000000, -1472.000000)" fill-rule="nonzero" fill="url(#linearGradient-1)">
            <path d="M840.710868,1530 L832.288764,1530 C831.402288,1530 830.683916,1529.28134 830.683916,1528.39515 L830.683916,1486.88441 C830.683916,1485.99821 831.402288,1485.27956 832.288764,1485.27956 L840.710868,1485.27956 C841.597345,1485.27956 842.315717,1485.99821 842.315717,1486.88441 L842.315717,1528.39515 C842.315717,1529.28117 841.596887,1530 840.710868,1530 Z M839.10602,1526.7903 L839.10602,1488.48926 L833.893613,1488.48926 L833.893613,1526.7903 L839.10602,1526.7903 Z M825.398297,1530 L816.975561,1530 C816.089085,1530 815.370713,1529.28134 815.370713,1528.39515 L815.370713,1499.70065 C815.370713,1498.81446 816.089085,1498.0958 816.975561,1498.0958 L825.398297,1498.0958 C826.284773,1498.0958 827.003145,1498.81446 827.003145,1499.70065 L827.003145,1528.39515 C827.003145,1529.28117 826.284315,1530 825.398297,1530 Z M823.793448,1526.7903 L823.793448,1501.3055 L818.58041,1501.3055 L818.58041,1526.7903 L823.793448,1526.7903 Z M810.340156,1530 L801.91742,1530 C801.030944,1530 800.312572,1529.28134 800.312572,1528.39515 L800.312572,1504.78296 C800.312572,1503.89676 801.030944,1503.17811 801.91742,1503.17811 L810.340156,1503.17811 C811.226632,1503.17811 811.945004,1503.89676 811.945004,1504.78296 L811.945004,1528.39515 C811.945004,1529.28134 811.226632,1530 810.340156,1530 Z M808.735307,1526.7903 L808.735307,1506.3878 L803.522269,1506.3878 L803.522269,1526.7903 L808.735307,1526.7903 Z M795.026953,1530 L786.604849,1530 C785.718372,1530 785,1529.28134 785,1528.39515 L785,1512.07496 C785,1511.18876 785.718372,1510.47011 786.604849,1510.47011 L795.026953,1510.47011 C795.913429,1510.47011 796.631801,1511.18876 796.631801,1512.07496 L796.631801,1528.39515 C796.631801,1529.28134 795.913429,1530 795.026953,1530 Z M793.422104,1526.7903 L793.422104,1513.67981 L788.209697,1513.67981 L788.209697,1526.7903 L793.422104,1526.7903 Z M790.792541,1508.06032 C788.526204,1508.06032 786.683158,1506.2175 786.683158,1503.95094 C786.683158,1501.68417 788.525777,1499.84156 790.792541,1499.84156 C791.837569,1499.84156 792.821554,1500.23649 793.570632,1500.92565 L801.648584,1496.14409 C801.646841,1496.0948 801.645966,1496.04544 801.645966,1495.99603 C801.645966,1493.72978 803.488696,1491.88728 805.755349,1491.88728 C806.941543,1491.88728 808.045335,1492.3958 808.816179,1493.2575 L816.815018,1490.86321 C816.996735,1488.69179 818.746164,1487.02594 820.90756,1487.02594 C821.519778,1487.02594 822.113697,1487.16101 822.654869,1487.4161 L832.047778,1477.69355 C831.839382,1477.19679 831.73005,1476.66014 831.73005,1476.10875 C831.73005,1473.84251 833.57278,1472 835.839432,1472 C838.105138,1472 839.948184,1473.84282 839.948184,1476.10875 C839.948184,1478.37498 838.105472,1480.21813 835.839432,1480.21813 C835.32116,1480.21813 834.815544,1480.12144 834.343608,1479.93635 L824.799604,1489.81569 C824.942742,1490.23697 825.016943,1490.68138 825.016943,1491.13533 C825.016943,1493.40157 823.174213,1495.24408 820.90756,1495.24408 C819.732958,1495.24408 818.63836,1494.74535 817.868494,1493.89827 L809.848031,1496.29922 C809.6634,1498.4466 807.910289,1500.10541 805.755349,1500.10541 C804.730898,1500.10541 803.765261,1499.72661 803.021064,1499.06173 L794.900499,1503.86805 C794.902011,1506.21753 793.059443,1508.06032 790.792541,1508.06032 Z M790.792541,1503.05188 C790.296805,1503.05188 789.892856,1503.45596 789.892856,1503.95157 C789.892856,1504.44718 790.296805,1504.85126 790.792541,1504.85126 C791.288088,1504.85126 791.692226,1504.44674 791.692226,1503.95094 C791.692226,1503.84371 791.673234,1503.73894 791.644915,1503.6601 C791.634321,1503.63542 791.634321,1503.63542 791.62788,1503.61646 C791.492237,1503.27881 791.162807,1503.05188 790.792541,1503.05188 Z M805.755349,1496.89571 C806.251085,1496.89571 806.655035,1496.49164 806.655035,1495.99603 C806.655035,1495.89981 806.639752,1495.8056 806.608981,1495.71228 C806.600957,1495.69111 806.600627,1495.68991 806.597117,1495.67716 C806.464778,1495.33117 806.131095,1495.09697 805.755981,1495.09697 C805.260054,1495.09697 804.856295,1495.50061 804.856295,1495.99603 C804.856295,1496.11094 804.877646,1496.22156 804.918391,1496.32425 C804.924799,1496.34023 804.926299,1496.34397 804.931633,1496.35798 C805.074868,1496.68168 805.396409,1496.89571 805.755349,1496.89571 Z M820.90756,1490.23564 C820.411824,1490.23564 820.007875,1490.63971 820.007875,1491.13533 C820.007875,1491.63075 820.411634,1492.03438 820.90756,1492.03438 C821.403486,1492.03438 821.807246,1491.63075 821.807246,1491.13533 C821.807246,1490.92465 821.734869,1490.7262 821.610683,1490.57495 C821.600561,1490.56341 821.600561,1490.56341 821.596571,1490.5577 C821.426088,1490.35455 821.17682,1490.23564 820.90756,1490.23564 Z M835.839432,1475.2097 C835.343506,1475.2097 834.939747,1475.61333 834.939747,1476.10875 C834.939747,1476.60436 835.343696,1477.00844 835.839432,1477.00844 C836.3346,1477.00844 836.738487,1476.6043 836.738487,1476.10875 C836.738487,1475.61365 836.334412,1475.2097 835.839432,1475.2097 Z" id="seo"></path>
        </g>
    </g>
</svg>