<?xml version="1.0" encoding="UTF-8"?>
<svg width="50px" height="50px" viewBox="0 0 50 50" version="1.1" xmlns="http://www.w3.org/2000/svg" xmlns:xlink="http://www.w3.org/1999/xlink">
    <!-- Generator: Sketch 46.2 (44496) - http://www.bohemiancoding.com/sketch -->
    <title>Shape</title>
    <desc>Created with Sketch.</desc>
    <defs>
        <linearGradient x1="0.267059949%" y1="0.267059949%" x2="100%" y2="100%" id="linearGradient-1">
            <stop stop-color="#514CE3" offset="0%"></stop>
            <stop stop-color="#4CC8F6" offset="100%"></stop>
        </linearGradient>
    </defs>
    <g id="website-design" stroke="none" stroke-width="1" fill="none" fill-rule="evenodd">
        <g id="Home-page" transform="translate(-901.000000, -1777.000000)" fill-rule="nonzero" fill="url(#linearGradient-1)">
            <path d="M920.076323,1777.00005 C909.564203,1777.00005 900.999981,1785.56419 900.999981,1796.07641 C900.999981,1806.58856 909.564203,1815.15271 920.076323,1815.15271 C923.42613,1815.15271 926.586661,1814.29337 929.326731,1812.76824 L942.030564,1825.47207 C944.067935,1827.50938 947.434716,1827.50938 949.472022,1825.47207 C951.509393,1823.4347 951.509459,1820.06798 949.472022,1818.03061 L936.768123,1805.32678 C938.293322,1802.58671 939.152665,1799.42619 939.152665,1796.07641 C939.152665,1785.56419 930.588443,1777.00005 920.076323,1777.00005 L920.076323,1777.00005 Z M920.076323,1780.94688 C928.455479,1780.94688 935.205884,1787.69724 935.205884,1796.07641 C935.205884,1804.45553 928.455479,1811.20593 920.076323,1811.20593 C911.697233,1811.20593 904.946829,1804.45553 904.946829,1796.07641 C904.946829,1787.69724 911.697233,1780.94688 920.076323,1780.94688 Z M934.44529,1808.59527 L946.67636,1820.80575 C947.2159,1821.34522 947.2159,1822.13687 946.67636,1822.67634 C946.13682,1823.21588 945.345108,1823.21588 944.805765,1822.67634 L932.595156,1810.44541 C933.253447,1809.87106 933.870947,1809.2535 934.44529,1808.59527 Z" id="Shape"></path>
        </g>
    </g>
</svg>