<?xml version="1.0" encoding="UTF-8"?>
<svg width="67px" height="66px" viewBox="0 0 67 66" version="1.1" xmlns="http://www.w3.org/2000/svg" xmlns:xlink="http://www.w3.org/1999/xlink">
    <!-- Generator: Sketch 46.2 (44496) - http://www.bohemiancoding.com/sketch -->
    <title>social-media</title>
    <desc>Created with Sketch.</desc>
    <defs>
        <linearGradient x1="0.267059949%" y1="0.267059949%" x2="100%" y2="100%" id="linearGradient-1">
            <stop stop-color="#514CE3" offset="0%"></stop>
            <stop stop-color="#4CC8F6" offset="100%"></stop>
        </linearGradient>
    </defs>
    <g id="website-design" stroke="none" stroke-width="1" fill="none" fill-rule="evenodd">
        <g id="Services-page" transform="translate(-881.000000, -1601.000000)" fill-rule="nonzero" fill="url(#linearGradient-1)">
            <path d="M914.246925,1650.62716 C909.867559,1650.62716 905.761903,1648.89847 902.659852,1645.80502 C899.557801,1642.71158 897.869921,1638.57182 897.869921,1634.2046 C897.869921,1629.83738 899.60342,1625.74312 902.705471,1622.64967 C905.807521,1619.55622 909.913177,1617.82753 914.292543,1617.82753 C918.671909,1617.82753 922.777565,1619.55622 925.879615,1622.64967 C928.981666,1625.74312 930.669547,1629.88288 930.669547,1634.25009 C930.669547,1638.61731 928.981666,1642.75707 925.879615,1645.85052 C922.731946,1648.94396 918.626291,1650.62716 914.246925,1650.62716 Z M914.258174,1620.69442 C910.655301,1620.69442 907.264362,1622.09318 904.721158,1624.67877 C902.177954,1627.26436 900.779192,1630.6553 900.779192,1634.30056 C900.779192,1637.94582 902.177954,1641.33676 904.721158,1643.92235 C907.264362,1646.50794 910.655301,1647.9067 914.258174,1647.9067 C917.861046,1647.9067 921.251985,1646.50794 923.795189,1643.92235 C926.338393,1641.33676 927.737156,1637.94582 927.737156,1634.30056 C927.737156,1630.6553 926.338393,1627.26436 923.795189,1624.67877 C921.251985,1622.13557 917.903433,1620.69442 914.258174,1620.69442 Z M910.241849,1641.33968 L910.241849,1632.15578 L912.537823,1624.32077 C912.595222,1624.20597 912.710021,1624.11987 912.82482,1624.11987 C913.944107,1624.11987 914.833797,1625.00956 914.833797,1626.12885 L914.833797,1631.58179 L920.286735,1631.58179 C921.406022,1631.58179 922.295712,1632.47148 922.295712,1633.59076 L922.295712,1634.16476 C922.295712,1634.19346 922.295712,1634.19346 922.295712,1634.22216 L921.291223,1639.70379 C921.119025,1640.65088 920.286735,1641.33968 919.310946,1641.33968 L910.528846,1641.33968 L910.241849,1641.33968 Z M909.667856,1632.15578 L909.667856,1641.33968 L907.084885,1641.33968 C906.912687,1641.33968 906.797889,1641.22488 906.797889,1641.05268 L906.797889,1632.44278 C906.797889,1632.27058 906.912687,1632.15578 907.084885,1632.15578 L909.667856,1632.15578 Z M898.278375,1632.63608 C898.235988,1633.16322 898.193601,1633.77821 898.193601,1634.39321 C898.193601,1635.0082 898.235988,1635.53534 898.235988,1636.15033 L890.055348,1636.15033 C890.097735,1635.62319 890.140121,1635.0082 890.140121,1634.39321 C890.140121,1633.77821 890.097735,1633.16322 890.055348,1632.63608 L898.278375,1632.63608 Z M912.592018,1650.40752 C913.207011,1650.40752 913.734148,1650.44991 914.349141,1650.44991 C914.964134,1650.44991 915.491271,1650.40752 916.106264,1650.40752 L916.106264,1658.03713 C915.579127,1657.99475 914.964134,1657.95236 914.349141,1657.95236 C913.734148,1657.95236 913.119155,1657.99475 912.592018,1658.03713 L912.592018,1650.40752 Z M916.106264,1618.1936 C915.579127,1618.15121 914.964134,1618.15121 914.349141,1618.15121 C913.734148,1618.15121 913.207011,1618.1936 912.592018,1618.1936 L912.592018,1610.14012 C913.119155,1610.18251 913.734148,1610.22489 914.349141,1610.22489 C914.964134,1610.22489 915.579127,1610.18251 916.106264,1610.14012 L916.106264,1618.1936 Z M938.291453,1632.63608 C938.206679,1633.16322 938.164292,1633.77821 938.164292,1634.39321 C938.164292,1635.0082 938.206679,1635.62319 938.249066,1636.15033 L930.28036,1636.15033 C930.322746,1635.53534 930.322746,1635.0082 930.322746,1634.39321 C930.322746,1633.77821 930.28036,1633.25108 930.28036,1632.63608 L938.291453,1632.63608 Z M903.961023,1621.82204 C903.558309,1622.16481 903.093471,1622.56971 902.658606,1623.00457 C902.22374,1623.43944 901.88097,1623.84215 901.446104,1624.27702 L895.661518,1618.49243 C896.064232,1618.14966 896.52907,1617.74477 896.963936,1617.3099 C897.398801,1616.87504 897.803695,1616.4102 898.146465,1616.00749 L903.961023,1621.82204 Z M901.515994,1644.50962 C901.95086,1644.94449 902.29363,1645.3472 902.728496,1645.78207 C903.163362,1646.21693 903.566076,1646.5597 904.000941,1646.99457 L898.605991,1652.38952 C898.263221,1651.9868 897.858327,1651.52197 897.423461,1651.0871 C896.988595,1650.65224 896.523758,1650.24734 896.121044,1649.90457 L901.515994,1644.50962 Z M926.779622,1624.21589 C926.436852,1623.81317 926.001986,1623.37831 925.56712,1622.94344 C925.132255,1622.50858 924.729541,1622.16581 924.294675,1621.73094 L929.989345,1616.03627 C930.332115,1616.43898 930.737009,1616.90382 931.171875,1617.33869 C931.60674,1617.77355 932.071578,1618.17845 932.474292,1618.52122 L926.779622,1624.21589 Z M932.254542,1650.11556 C931.821856,1650.42836 931.357018,1650.83325 930.922153,1651.26812 C930.487287,1651.70299 930.082393,1652.16782 929.739623,1652.57054 L924.104897,1646.93581 C924.569735,1646.53092 924.942477,1646.15817 925.377342,1645.72331 C925.812208,1645.28844 926.154978,1644.88573 926.589844,1644.45086 L932.254542,1650.11556 Z M885.685661,1629.52627 C883.119704,1629.52627 881,1631.62104 881,1634.21193 C881,1636.80283 883.119704,1638.89759 885.685661,1638.89759 C888.251618,1638.89759 890.371322,1636.80283 890.371322,1634.21193 C890.371322,1631.62104 888.3074,1629.52627 885.685661,1629.52627 Z M885.731901,1636.16558 C884.714619,1636.16558 883.866885,1635.31784 883.866885,1634.25817 C883.866885,1633.19851 884.714619,1632.35077 885.731901,1632.35077 C886.749183,1632.35077 887.596917,1633.19851 887.596917,1634.25817 C887.596917,1635.31784 886.791569,1636.16558 885.731901,1636.16558 Z M914.211934,1657.62868 C911.645977,1657.62868 909.526273,1659.72344 909.526273,1662.31434 C909.526273,1664.90523 911.645977,1667 914.211934,1667 C916.777891,1667 918.897595,1664.90523 918.897595,1662.31434 C918.897595,1659.72344 916.833673,1657.62868 914.211934,1657.62868 Z M914.258174,1664.26798 C913.240892,1664.26798 912.393157,1663.42025 912.393157,1662.36058 C912.393157,1661.30091 913.240892,1660.45318 914.258174,1660.45318 C915.275455,1660.45318 916.12319,1661.30091 916.12319,1662.36058 C916.12319,1663.42025 915.317842,1664.26798 914.258174,1664.26798 Z M942.56866,1629.52627 C940.002702,1629.52627 937.882999,1631.62104 937.882999,1634.21193 C937.882999,1636.80283 940.002702,1638.89759 942.56866,1638.89759 C945.134617,1638.89759 947.25432,1636.80283 947.25432,1634.21193 C947.25432,1631.62104 945.134617,1629.52627 942.56866,1629.52627 Z M942.6149,1636.16558 C941.597618,1636.16558 940.749883,1635.31784 940.749883,1634.25817 C940.749883,1633.19851 941.597618,1632.35077 942.6149,1632.35077 C943.632181,1632.35077 944.479916,1633.19851 944.479916,1634.25817 C944.479916,1635.31784 943.632181,1636.16558 942.6149,1636.16558 Z M914.211934,1610.37132 C916.777891,1610.37132 918.897595,1608.27656 918.897595,1605.68566 C918.897595,1603.09477 916.777891,1601 914.211934,1601 C911.645977,1601 909.526273,1603.09477 909.526273,1605.68566 C909.526273,1608.27656 911.645977,1610.37132 914.211934,1610.37132 Z M914.258174,1603.90927 C915.275455,1603.90927 916.12319,1604.75701 916.12319,1605.81667 C916.12319,1606.87634 915.275455,1607.72408 914.258174,1607.72408 C913.240892,1607.72408 912.393157,1606.87634 912.393157,1605.81667 C912.393157,1604.75701 913.240892,1603.90927 914.258174,1603.90927 Z M894.131218,1649.70236 C892.859593,1649.70236 891.698544,1650.19849 890.813936,1651.08049 L890.813936,1651.08049 C888.989431,1652.89963 888.989431,1655.87641 890.813936,1657.69554 C891.698544,1658.57755 892.859593,1659.07368 894.131218,1659.07368 C895.402843,1659.07368 896.563891,1658.57755 897.4485,1657.69554 C899.273005,1655.87641 899.273005,1652.89963 897.4485,1651.08049 C896.563891,1650.19849 895.402843,1649.70236 894.131218,1649.70236 Z M895.523237,1655.79064 C895.184143,1656.12973 894.717889,1656.34166 894.209248,1656.34166 C893.700607,1656.34166 893.234353,1656.12973 892.895259,1655.79064 C892.174685,1655.07006 892.174685,1653.84085 892.895259,1653.12027 C893.234353,1652.78118 893.700607,1652.56924 894.209248,1652.56924 C894.717889,1652.56924 895.184143,1652.78118 895.523237,1653.12027 C896.286198,1653.84085 896.286198,1655.07006 895.523237,1655.79064 Z M933.635655,1649.70236 C932.36403,1649.70236 931.202982,1650.19849 930.318373,1651.08049 C928.493868,1652.89963 928.493868,1655.87641 930.318373,1657.69554 C931.202982,1658.57755 932.36403,1659.07368 933.635655,1659.07368 C934.90728,1659.07368 936.068329,1658.57755 936.952937,1657.69554 C938.777442,1655.87641 938.777442,1652.89963 936.952937,1651.08049 C936.013041,1650.19849 934.851992,1649.70236 933.635655,1649.70236 Z M935.027674,1655.79064 C934.68858,1656.12973 934.222326,1656.34166 933.713685,1656.34166 C933.205044,1656.34166 932.73879,1656.12973 932.399696,1655.79064 C931.679122,1655.07006 931.679122,1653.84085 932.399696,1653.12027 C932.73879,1652.78118 933.205044,1652.56924 933.713685,1652.56924 C934.222326,1652.56924 934.68858,1652.78118 935.027674,1653.12027 C935.748248,1653.84085 935.748248,1655.07006 935.027674,1655.79064 Z M934.35623,1618.59435 C935.627854,1618.59435 936.788903,1618.09822 937.673512,1617.21621 C939.498017,1615.39707 939.498017,1612.4203 937.673512,1610.60116 C936.788903,1609.71916 935.627854,1609.22303 934.35623,1609.22303 C933.084605,1609.22303 931.923556,1609.71916 931.038948,1610.60116 C929.214442,1612.4203 929.214442,1615.39707 931.038948,1617.21621 C931.923556,1618.09822 933.084605,1618.59435 934.35623,1618.59435 Z M933.077884,1612.68333 C933.416978,1612.34423 933.883232,1612.1323 934.391873,1612.1323 C934.900514,1612.1323 935.366768,1612.34423 935.705862,1612.68333 C936.426436,1613.4039 936.426436,1614.63312 935.705862,1615.35369 C935.366768,1615.69278 934.900514,1615.90472 934.391873,1615.90472 C933.883232,1615.90472 933.416978,1615.69278 933.077884,1615.35369 C932.35731,1614.59073 932.35731,1613.4039 933.077884,1612.68333 Z M890.983483,1617.21621 C891.868091,1618.09822 893.02914,1618.59435 894.300765,1618.59435 C895.57239,1618.59435 896.733438,1618.09822 897.618047,1617.21621 C899.442552,1615.39707 899.442552,1612.4203 897.618047,1610.60116 C896.733438,1609.71916 895.57239,1609.22303 894.300765,1609.22303 C893.02914,1609.22303 891.868091,1609.71916 890.983483,1610.60116 L890.983483,1610.60116 C889.158978,1612.4203 889.158978,1615.39707 890.983483,1617.21621 Z M893.022419,1612.68333 L893.022419,1612.68333 C893.361513,1612.34423 893.827767,1612.1323 894.336408,1612.1323 C894.845049,1612.1323 895.311303,1612.34423 895.650397,1612.68333 C896.370972,1613.4039 896.370972,1614.63312 895.650397,1615.35369 C895.311303,1615.69278 894.845049,1615.90472 894.336408,1615.90472 C893.827767,1615.90472 893.361513,1615.69278 893.022419,1615.35369 C892.301845,1614.59073 892.301845,1613.4039 893.022419,1612.68333 Z" id="social-media"></path>
        </g>
    </g>
</svg>