<?xml version="1.0" encoding="UTF-8"?>
<svg width="60px" height="60px" viewBox="0 0 60 60" version="1.1" xmlns="http://www.w3.org/2000/svg" xmlns:xlink="http://www.w3.org/1999/xlink">
    <!-- Generator: Sketch 46.2 (44496) - http://www.bohemiancoding.com/sketch -->
    <title>traditional-advertising</title>
    <desc>Created with Sketch.</desc>
    <defs>
        <linearGradient x1="0.267059949%" y1="0.267059949%" x2="100%" y2="100%" id="linearGradient-1">
            <stop stop-color="#514CE3" offset="0%"></stop>
            <stop stop-color="#4CC8F6" offset="100%"></stop>
        </linearGradient>
    </defs>
    <g id="website-design" stroke="none" stroke-width="1" fill="none" fill-rule="evenodd">
        <g id="Services-page" transform="translate(-980.000000, -1414.000000)" fill-rule="nonzero" fill="url(#linearGradient-1)">
            <path d="M987.333328,1414.00006 C986.416129,1413.99206 985.599263,1414.77126 985.395863,1415.50006 L984.062531,1420.83339 C983.758664,1422.01072 984.784063,1423.33385 985.999996,1423.33339 L987.312528,1423.33339 L986.499996,1426.00005 L983.333331,1426.00005 C981.521132,1426.00005 980,1427.52119 980,1429.33338 L980,1454.66668 C980,1456.47888 981.521132,1458.00001 983.333331,1458.00001 L1004.56252,1458.00001 L1004.56252,1472 C1004.56263,1473.10452 1005.45799,1473.99989 1006.56252,1474 L1013.22918,1474 C1014.3337,1473.99989 1015.22907,1473.10452 1015.22918,1472 L1015.22918,1458.00001 L1036.66663,1458.00001 C1038.47889,1458.00001 1039.99996,1456.47888 1039.99996,1454.66668 L1039.99996,1429.33338 C1039.99996,1427.52119 1038.47889,1426.00005 1036.66663,1426.00005 L1030.68743,1426.00005 L1031.47916,1423.33339 L1033.99996,1423.33339 C1034.88443,1423.33339 1035.7255,1422.67126 1035.93743,1421.81259 L1037.27076,1416.47926 C1037.55989,1415.30733 1036.54029,1414.00279 1035.3333,1414.00006 L1027.3333,1414.00006 C1026.4161,1413.99206 1025.5993,1414.77126 1025.39584,1415.50006 L1024.0625,1420.83339 C1023.7587,1422.01072 1024.78404,1423.33385 1025.99997,1423.33339 L1027.3125,1423.33339 L1026.49997,1426.00005 L1010.62498,1426.00005 L1011.41665,1423.33339 L1013.93744,1423.33339 C1014.82198,1423.33339 1015.66298,1422.67126 1015.87498,1421.81259 L1017.20831,1416.47926 C1017.49731,1415.30733 1016.47791,1414.00279 1015.27078,1414.00006 L1007.27078,1414.00006 C1006.35358,1413.99206 1005.53678,1414.77126 1005.33332,1415.50006 L1003.99998,1420.83339 C1003.69612,1422.01072 1004.72158,1423.33385 1005.93745,1423.33339 L1007.24998,1423.33339 L1006.43745,1426.00005 L990.687459,1426.00005 L991.479192,1423.33339 L993.99999,1423.33339 C994.884456,1423.33339 995.725456,1422.67126 995.937456,1421.81259 L997.270788,1416.47926 C997.559855,1415.30733 996.540322,1414.00279 995.333323,1414.00006 L987.333328,1414.00006 L987.333328,1414.00006 Z M987.811348,1416.37738 L994.603801,1416.37738 L993.471726,1420.90563 L986.679273,1420.90563 L987.811348,1416.37738 Z M1007.84903,1416.37738 L1014.64148,1416.37738 L1013.50941,1420.90563 L1006.71695,1420.90563 L1007.84903,1416.37738 Z M1028.00003,1416.37738 L1034.79248,1416.37738 L1033.6604,1420.90563 L1026.86795,1420.90563 L1028.00003,1416.37738 Z M983.49329,1429.5158 L1036.50667,1429.5158 L1036.50667,1454.48426 L983.49329,1454.48426 L983.49329,1429.5158 Z M1008.10583,1458.00001 L1011.68586,1458.00001 L1011.68586,1470.7047 L1008.10583,1470.7047 L1008.10583,1458.00001 L1008.10583,1458.00001 Z" id="traditional-advertising"></path>
        </g>
    </g>
</svg>