<?xml version="1.0" encoding="UTF-8"?>
<svg width="52px" height="54px" viewBox="0 0 52 54" version="1.1" xmlns="http://www.w3.org/2000/svg" xmlns:xlink="http://www.w3.org/1999/xlink">
    <!-- Generator: Sketch 46.2 (44496) - http://www.bohemiancoding.com/sketch -->
    <title>video-production</title>
    <desc>Created with Sketch.</desc>
    <defs>
        <linearGradient x1="0.267059949%" y1="0.267059949%" x2="100%" y2="100%" id="linearGradient-1">
            <stop stop-color="#514CE3" offset="0%"></stop>
            <stop stop-color="#4CC8F6" offset="100%"></stop>
        </linearGradient>
    </defs>
    <g id="website-design" stroke="none" stroke-width="1" fill="none" fill-rule="evenodd">
        <g id="Services-page" transform="translate(-1076.000000, -1646.000000)" fill-rule="nonzero" fill="url(#linearGradient-1)">
            <path d="M1084.9716,1655.45648 L1083.18466,1658.55796 L1092.68388,1664.03168 L1094.47082,1660.93021 L1084.9716,1655.45648 Z M1096.50571,1652.35569 L1094.71877,1655.45718 L1104.21804,1660.93093 L1106.00548,1657.82942 L1096.50571,1652.35569 Z M1108.04038,1649.2549 L1106.25293,1652.35643 L1115.75215,1657.83016 L1117.5396,1654.72863 L1108.04038,1649.2549 Z M1125.42742,1651.84728 C1124.50164,1648.40451 1121.36725,1646 1117.80571,1646 C1117.11395,1646 1116.42376,1646.09151 1115.75203,1646.27252 L1081.84638,1655.38846 C1077.64265,1656.51884 1075.1413,1660.85973 1076.27161,1665.06321 L1077.3475,1669.06411 L1126.50329,1655.84814 L1125.42742,1651.84728 Z M1121.97047,1652.77609 L1122.11613,1653.32099 L1079.87415,1664.67842 L1079.74484,1664.19468 L1079.72852,1664.13366 C1079.11049,1661.83503 1080.47733,1659.46279 1082.77594,1658.84476 L1116.68125,1649.72891 C1117.04996,1649.62948 1117.428,1649.57906 1117.80589,1649.57906 C1119.75229,1649.57975 1121.4638,1650.89388 1121.97047,1652.77609 Z M1076.82104,1692.10388 C1076.82162,1696.45755 1080.36406,1700 1084.7171,1700 L1119.82665,1700 C1124.17981,1700 1127.72271,1696.45745 1127.72271,1692.10456 L1127.72271,1671.64833 L1124.09259,1671.64833 C1123.86061,1672.78126 1122.85636,1673.63567 1121.65571,1673.63567 L1082.88804,1673.63567 C1081.68739,1673.63567 1080.68314,1672.78126 1080.45116,1671.64833 L1076.82104,1671.64833 L1076.82104,1692.10388 Z M1082.88804,1677.21533 L1121.6551,1677.21533 C1122.28568,1677.21533 1122.9028,1677.11889 1123.4906,1676.93155 L1124.14243,1676.72381 L1124.14243,1692.10456 C1124.14243,1694.48495 1122.20665,1696.42094 1119.82604,1696.42094 L1084.7171,1696.42094 C1082.3367,1696.42094 1080.40071,1694.48517 1080.40071,1692.10456 L1080.40071,1676.72401 L1081.05241,1676.93151 C1081.64113,1677.11896 1082.25767,1677.21533 1082.88804,1677.21533 Z M1087.71767,1665.95943 L1085.1865,1668.4906 L1092.93897,1676.24252 L1095.47014,1673.71135 L1087.71767,1665.95943 Z M1099.66121,1665.95944 L1097.13005,1668.4906 L1104.8825,1676.24248 L1107.41314,1673.71137 L1099.66121,1665.95944 Z M1111.6048,1665.95947 L1109.07417,1668.49058 L1116.82606,1676.24247 L1119.35669,1673.71137 L1111.6048,1665.95947 Z M1076.82165,1671.14886 C1076.82222,1674.49317 1079.54412,1677.21472 1082.88865,1677.21472 L1121.65579,1677.21472 C1125.00034,1677.21529 1127.72271,1674.4931 1127.72271,1671.14833 L1127.72271,1665.08133 L1076.82165,1665.08133 L1076.82165,1671.14886 Z M1124.14304,1671.14833 C1124.14304,1672.5202 1123.02757,1673.63567 1121.65571,1673.63567 L1082.88804,1673.63567 C1081.51606,1673.63567 1080.40071,1672.52008 1080.40071,1671.14772 L1080.40071,1668.661 L1124.14304,1668.661 L1124.14304,1671.14833 Z M1079.11088,1684.18772 L1079.11088,1687.76739 L1100.48204,1687.76739 L1100.48204,1698.72767 L1104.06171,1698.72767 L1104.06171,1687.76739 L1125.43288,1687.76739 L1125.43288,1684.18772 L1079.11088,1684.18772 Z" id="video-production"></path>
        </g>
    </g>
</svg>