<?xml version="1.0" encoding="UTF-8"?>
<svg width="50px" height="50px" viewBox="0 0 50 50" version="1.1" xmlns="http://www.w3.org/2000/svg" xmlns:xlink="http://www.w3.org/1999/xlink">
    <!-- Generator: Sketch 46.2 (44496) - http://www.bohemiancoding.com/sketch -->
    <title>web-development</title>
    <desc>Created with Sketch.</desc>
    <defs>
        <linearGradient x1="0.267059949%" y1="0.267059949%" x2="100%" y2="100%" id="linearGradient-1">
            <stop stop-color="#514CE3" offset="0%"></stop>
            <stop stop-color="#4CC8F6" offset="100%"></stop>
        </linearGradient>
    </defs>
    <g id="website-design" stroke="none" stroke-width="1" fill="none" fill-rule="evenodd">
        <g id="Services-page" transform="translate(-490.000000, -1438.000000)" fill-rule="nonzero" fill="url(#linearGradient-1)">
            <path d="M522,1444.33333 C521.166667,1444 520.166667,1443.83333 519.333333,1443.83333 C516.833333,1443.83333 514.833333,1445.16667 514.166667,1447 L513,1450.16667 L513,1450.16667 L505.333333,1472.66667 C505.333333,1472.83333 505.333333,1473 505.333333,1473.33333 C505.333333,1473.5 505.333333,1473.5 505.333333,1473.66667 C505.333333,1473.66667 505.333333,1473.66667 505.333333,1473.83333 L507.666667,1482.5 C507.833333,1483 508.166667,1483.5 508.666667,1483.66667 C508.833333,1483.66667 509,1483.66667 509.166667,1483.66667 C509.5,1483.66667 509.833333,1483.5 510.166667,1483.33333 L517.166667,1477.83333 C517.333333,1477.66667 517.333333,1477.66667 517.5,1477.5 C517.666667,1477.33333 517.666667,1477.33333 517.666667,1477.16667 C517.666667,1477 517.833333,1477 517.833333,1476.83333 L525.333333,1454.5 C525.333333,1454.5 525.333333,1454.5 525.333333,1454.5 C525.333333,1454.5 525.333333,1454.5 525.333333,1454.5 L526.5,1451.33333 C527.5,1448.66667 525.5,1445.66667 522,1444.33333 Z M510.166667,1479.33333 L509.333333,1476.16667 L512.833333,1477.33333 L510.166667,1479.33333 Z M515.333333,1474.66667 L509.166667,1472.5 L515.666667,1453.16667 L521.833333,1455.33333 L515.333333,1474.66667 Z M523.5,1450.33333 L523,1452 L516.833333,1449.83333 L517.333333,1448.16667 C517.666667,1447.33333 519.333333,1447 521,1447.5 C522.666667,1448.16667 523.666667,1449.5 523.5,1450.33333 Z M501.333333,1488 C497.666667,1488 494.833333,1485 494.833333,1481.5 L494.833333,1467.83333 C494.833333,1466 493.333333,1464.66667 491.666667,1464.66667 C490.666667,1464.66667 490,1464 490,1463 C490,1462 490.666667,1461.33333 491.666667,1461.33333 C493.5,1461.33333 494.833333,1459.83333 494.833333,1458.16667 L494.833333,1444.5 C494.833333,1440.83333 497.833333,1438 501.333333,1438 C502.333333,1438 503,1438.66667 503,1439.66667 C503,1440.66667 502.333333,1441.33333 501.333333,1441.33333 C499.5,1441.33333 498.166667,1442.83333 498.166667,1444.5 L498.166667,1458.16667 C498.166667,1460.16667 497.333333,1461.83333 496,1463 C497.333333,1464.16667 498.166667,1466 498.166667,1467.83333 L498.166667,1481.5 C498.166667,1483.33333 499.666667,1484.66667 501.333333,1484.66667 C502.333333,1484.66667 503,1485.33333 503,1486.33333 C503,1487.33333 502.333333,1488 501.333333,1488 Z M528.666667,1488 C527.666667,1488 527,1487.33333 527,1486.33333 C527,1485.33333 527.666667,1484.66667 528.666667,1484.66667 C530.5,1484.66667 531.833333,1483.16667 531.833333,1481.5 L531.833333,1467.83333 C531.833333,1465.83333 532.666667,1464.16667 534,1463 C532.666667,1461.83333 531.833333,1460 531.833333,1458.16667 L531.833333,1444.5 C531.833333,1442.66667 530.333333,1441.33333 528.666667,1441.33333 C527.666667,1441.33333 527,1440.66667 527,1439.66667 C527,1438.66667 527.666667,1438 528.666667,1438 C532.333333,1438 535.166667,1441 535.166667,1444.5 L535.166667,1458.16667 C535.166667,1460 536.666667,1461.33333 538.333333,1461.33333 C539.333333,1461.33333 540,1462 540,1463 C540,1464 539.333333,1464.66667 538.333333,1464.66667 C536.5,1464.66667 535.166667,1466.16667 535.166667,1467.83333 L535.166667,1481.5 C535.166667,1485 532.166667,1488 528.666667,1488 Z" id="web-development"></path>
        </g>
    </g>
</svg>